<svg width="518" height="127" viewBox="0 0 518 127" fill="none" xmlns="http://www.w3.org/2000/svg">
<path d="M62.592 59.472C62.592 69.936 57.888 83.76 42.912 83.856H23.904V102H5.664V34.8H43.008C57.984 34.896 62.592 48.912 62.592 59.472ZM36.288 68.496C40.608 68.496 43.584 66.192 43.584 59.568C43.584 52.944 40.896 50.064 36.288 50.064H23.904V68.496H36.288ZM115.556 82.512L129.764 102C126.02 102.672 122.852 103.056 120.164 103.056C109.988 103.056 106.148 98.16 100.388 88.848L97.3163 83.856H89.1562V102H70.9163V34.8H108.26C123.236 34.896 127.844 48.912 127.844 59.472C127.844 68.016 124.772 78.768 115.556 82.512ZM101.54 68.496C105.86 68.496 108.836 66.192 108.836 59.568C108.836 52.944 106.148 50.064 101.54 50.064H89.1562V68.496H101.54ZM156.185 102H137.945V34.8H156.185V102ZM252.335 34.8H270.383V102H252.335V90.864H231.406L226.895 102H206.255L226.511 53.04C232.655 38.256 236.783 34.8 252.335 34.8ZM252.335 75.6V50.16C248.303 50.832 246.095 54.672 242.639 63.12L237.647 75.6H252.335ZM338.592 59.472C338.592 69.936 333.888 83.76 318.912 83.856H299.904V102H281.664V34.8H319.008C333.984 34.896 338.592 48.912 338.592 59.472ZM312.288 68.496C316.608 68.496 319.584 66.192 319.584 59.568C319.584 52.944 316.896 50.064 312.288 50.064H299.904V68.496H312.288ZM377.348 34.224C403.556 34.224 408.548 49.392 408.548 68.4C408.548 87.408 403.556 102.576 377.348 102.576H376.004C349.796 102.576 344.804 87.408 344.804 68.4C344.804 49.392 349.796 34.224 376.004 34.224H377.348ZM378.212 87.312C384.356 87.312 390.308 84.144 390.308 68.4C390.308 52.656 384.356 49.488 378.212 49.488H375.14C369.092 49.488 363.044 52.656 363.044 68.4C363.044 84.144 369.092 87.312 375.14 87.312H378.212ZM438.905 86.736H463.865V102H428.921C420.569 102 417.881 98.064 417.881 90.288V34.8H436.121V83.856C436.121 85.968 436.601 86.736 438.905 86.736ZM491.498 86.736H516.458V102H481.514C473.162 102 470.474 98.064 470.474 90.288V34.8H488.714V83.856C488.714 85.968 489.194 86.736 491.498 86.736Z" fill="white"/>
<path d="M225.267 35.7913L195.767 97.7913L193.268 102.291H182.768L166.267 85.2913C156.267 74.4913 161.769 62.6667 166.269 58L184.998 77.5C187.998 71.8333 195.267 54.6913 201.267 44.2913C207.267 33.8913 219.767 34.2913 225.267 35.7913Z" fill="#00C9FF"/>
</svg>
